<svg width="35" height="35" viewBox="0 0 35 35" fill="none" xmlns="http://www.w3.org/2000/svg">
<path d="M3.92212 17.3205H5.9886L7.13664 11.6089H5.07016L3.92212 17.3205ZM5.50068 11.0923H7.94027L8.34208 9.08325H5.90249L5.50068 11.0923ZM6.79223 18.9277H8.8587L10.1216 12.757H11.6714L11.901 11.6089H10.3799L10.4373 11.3506C10.5234 10.8627 10.6956 10.3174 11.4705 10.3174C11.9297 10.3174 12.3602 10.3461 12.7908 10.547L13.0204 9.34156C12.5324 9.16935 12.0158 9.08325 11.5279 9.08325C9.86324 9.08325 8.7152 10.0591 8.28468 11.6089H7.56715L7.33755 12.757H8.05507L6.79223 18.9277Z" fill="#EA1D2C"/>
<path d="M13.3361 17.4353C15.7757 17.4353 17.469 15.2253 17.469 13.4171C17.469 12.0682 16.2349 11.4941 15.0294 11.4941C12.3602 11.4941 10.8965 13.8763 10.8965 15.5123C10.8965 16.8612 12.1593 17.4353 13.3361 17.4353ZM19.8799 17.4353C22.3195 17.4353 24.0129 15.2253 24.0129 13.4171C24.0129 12.0682 22.75 11.4941 21.5446 11.4941C18.8754 11.4941 17.4116 13.8763 17.4116 15.5123C17.4116 16.8612 18.7032 17.4353 19.8799 17.4353ZM27.3709 17.3205H29.4087L31.0733 9.19806H29.0069L28.5189 11.6089L27.6579 11.5228C25.6488 11.5228 23.812 14.1059 23.812 15.9428C23.812 16.689 24.2999 17.4353 25.1322 17.4353C26.309 17.4353 27.1413 16.8612 27.4857 16.2872H27.6005L27.3709 17.3205ZM20.9993 21.5969C19.3952 22.9258 17.3351 23.5748 15.259 23.4051C12.5324 23.2329 10.5808 21.1377 10.2364 18.9277H10.3512C10.9826 20.3054 12.5037 21.5969 14.3693 21.7978C16.2636 22.0274 18.531 21.1664 19.7651 19.9897L18.3875 18.9277H22.5491L21.6307 23.3477L21.028 21.6256L20.9993 21.5969Z" fill="#EA1D2C"/>
</svg>
